<?xml version="1.0" encoding="utf-8"?>
<!-- Generator: Adobe Illustrator 15.0.2, SVG Export Plug-In . SVG Version: 6.00 Build 0)  -->
<!DOCTYPE svg PUBLIC "-//W3C//DTD SVG 1.1//EN" "http://www.w3.org/Graphics/SVG/1.1/DTD/svg11.dtd">
<svg version="1.1" id="Calque_1" xmlns="http://www.w3.org/2000/svg" xmlns:xlink="http://www.w3.org/1999/xlink" x="0px" y="0px"
	 width="305px" height="304px" viewBox="0 0 305 304" enable-background="new 0 0 305 304" xml:space="preserve">
<g>
	<g>
		<defs>
			<rect id="SVGID_1_" x="0.109" y="1.757" width="304.782" height="300.487"/>
		</defs>
		<clipPath id="SVGID_2_">
			<use xlink:href="#SVGID_1_"  overflow="visible"/>
		</clipPath>
		<path clip-path="url(#SVGID_2_)" fill="#FFFFFF" d="M93.534,265.801l-2.874,15.012h-2.233l-2.865-15.012h2.252l1.677,10.277
			c0.013,0.296,0.029,0.723,0.058,1.281c-0.007-0.293,0.012-0.719,0.058-1.281l1.684-10.277H93.534z"/>
	</g>
	<g>
		<defs>
			<rect id="SVGID_3_" x="0.109" y="1.757" width="304.782" height="300.487"/>
		</defs>
		<clipPath id="SVGID_4_">
			<use xlink:href="#SVGID_3_"  overflow="visible"/>
		</clipPath>
		<path clip-path="url(#SVGID_4_)" fill="#FFFFFF" d="M100.938,279.594c0,0.801-0.412,1.199-1.238,1.199h-3.782
			c-0.822,0-1.236-0.398-1.236-1.199v-7.277c0-0.799,0.414-1.2,1.236-1.2H99.7c0.826,0,1.238,0.401,1.238,1.2v3.551l-0.604,0.607
			H96.78v2.709h2.061v-1.61h2.098L100.938,279.594L100.938,279.594z M98.84,272.725h-2.058v2.318h2.058V272.725z"/>
	</g>
	<g>
		<defs>
			<rect id="SVGID_5_" x="0.109" y="1.757" width="304.782" height="300.487"/>
		</defs>
		<clipPath id="SVGID_6_">
			<use xlink:href="#SVGID_5_"  overflow="visible"/>
		</clipPath>
		<path clip-path="url(#SVGID_6_)" fill="#FFFFFF" d="M108.984,280.793h-2.203v-7.85l-2.062,0.039v7.811h-2.19v-9.676h2.19v0.354
			c0.513-0.082,1.021-0.16,1.525-0.236c0.624-0.104,1.139-0.155,1.543-0.155c0.798,0,1.196,0.392,1.196,1.179L108.984,280.793
			L108.984,280.793z"/>
	</g>
	<g>
		<defs>
			<rect id="SVGID_7_" x="0.109" y="1.757" width="304.782" height="300.487"/>
		</defs>
		<clipPath id="SVGID_8_">
			<use xlink:href="#SVGID_7_"  overflow="visible"/>
		</clipPath>
		<path clip-path="url(#SVGID_8_)" fill="#FFFFFF" d="M114.73,280.793h-2.432c-0.813,0-1.217-0.398-1.217-1.199v-6.609h-1.035
			v-1.866h1.035v-2.623h2.184v2.623h1.409v1.866h-1.409v5.939h1.465V280.793L114.73,280.793z"/>
	</g>
	<g>
		<defs>
			<rect id="SVGID_9_" x="0.109" y="1.757" width="304.782" height="300.487"/>
		</defs>
		<clipPath id="SVGID_10_">
			<use xlink:href="#SVGID_9_"  overflow="visible"/>
		</clipPath>
		<path clip-path="url(#SVGID_10_)" fill="#FFFFFF" d="M122.202,279.594c0,0.801-0.412,1.199-1.234,1.199h-3.785
			c-0.824,0-1.236-0.398-1.236-1.199v-7.277c0-0.799,0.412-1.2,1.236-1.2h3.785c0.822,0,1.234,0.401,1.234,1.2v3.551l-0.603,0.607
			h-3.553v2.709h2.058v-1.61h2.098V279.594z M120.104,272.725h-2.058v2.318h2.058V272.725z"/>
	</g>
	<g>
		<defs>
			<rect id="SVGID_11_" x="0.109" y="1.757" width="304.782" height="300.487"/>
		</defs>
		<clipPath id="SVGID_12_">
			<use xlink:href="#SVGID_11_"  overflow="visible"/>
		</clipPath>
		<path clip-path="url(#SVGID_12_)" fill="#FFFFFF" d="M134.089,279.594c0,0.801-0.412,1.199-1.236,1.199h-3.782
			c-0.824,0-1.235-0.398-1.235-1.199v-7.277c0-0.799,0.412-1.2,1.235-1.2h3.782c0.825,0,1.236,0.401,1.236,1.2v3.551l-0.603,0.607
			h-3.553v2.709h2.058v-1.61h2.098V279.594L134.089,279.594z M131.991,272.725h-2.058v2.318h2.058V272.725z"/>
	</g>
	<g>
		<defs>
			<rect id="SVGID_13_" x="0.109" y="1.757" width="304.782" height="300.487"/>
		</defs>
		<clipPath id="SVGID_14_">
			<use xlink:href="#SVGID_13_"  overflow="visible"/>
		</clipPath>
		<path clip-path="url(#SVGID_14_)" fill="#FFFFFF" d="M139.855,280.793h-2.431c-0.813,0-1.217-0.398-1.217-1.199v-6.609h-1.036
			v-1.866h1.036v-2.623h2.184v2.623h1.409v1.866h-1.409v5.939h1.464V280.793L139.855,280.793z"/>
	</g>
	<g>
		<defs>
			<rect id="SVGID_15_" x="0.109" y="1.757" width="304.782" height="300.487"/>
		</defs>
		<clipPath id="SVGID_16_">
			<use xlink:href="#SVGID_15_"  overflow="visible"/>
		</clipPath>
		<rect x="145.173" y="265.805" clip-path="url(#SVGID_16_)" fill="#FFFFFF" width="2.154" height="14.988"/>
	</g>
	<g>
		<defs>
			<rect id="SVGID_17_" x="0.109" y="1.757" width="304.782" height="300.487"/>
		</defs>
		<clipPath id="SVGID_18_">
			<use xlink:href="#SVGID_17_"  overflow="visible"/>
		</clipPath>
		<path clip-path="url(#SVGID_18_)" fill="#FFFFFF" d="M155.336,279.594c0,0.801-0.406,1.199-1.218,1.199h-3.927
			c-0.822,0-1.236-0.398-1.236-1.199v-7.277c0-0.799,0.415-1.2,1.236-1.2h3.927c0.812,0,1.218,0.401,1.218,1.2V279.594z
			 M153.189,272.947h-2.078v6.025h2.078V272.947z"/>
	</g>
	<g>
		<defs>
			<rect id="SVGID_19_" x="0.109" y="1.757" width="304.782" height="300.487"/>
		</defs>
		<clipPath id="SVGID_20_">
			<use xlink:href="#SVGID_19_"  overflow="visible"/>
		</clipPath>
		<path clip-path="url(#SVGID_20_)" fill="#FFFFFF" d="M163.169,279.594c0,0.803-0.403,1.196-1.215,1.196h-3.806
			c-0.82,0-1.231-0.396-1.231-1.196v-7.281c0-0.795,0.411-1.194,1.231-1.194h3.806c0.812,0,1.215,0.399,1.215,1.194v2.303h-2.135
			v-1.667h-1.964v6.022h1.964v-1.847h2.135V279.594z"/>
	</g>
	<g>
		<defs>
			<rect id="SVGID_21_" x="0.109" y="1.757" width="304.782" height="300.487"/>
		</defs>
		<clipPath id="SVGID_22_">
			<use xlink:href="#SVGID_21_"  overflow="visible"/>
		</clipPath>
		<path clip-path="url(#SVGID_22_)" fill="#FFFFFF" d="M170.977,280.793h-2.099v-0.336c-0.496,0.077-0.996,0.152-1.492,0.229
			c-0.653,0.097-1.146,0.144-1.483,0.144c-0.799,0-1.2-0.392-1.2-1.179v-3.486c0-0.798,0.414-1.195,1.237-1.195h2.959v-2.222h-2.097
			v1.379h-1.983v-1.813c0-0.795,0.41-1.194,1.236-1.194h3.705c0.812,0,1.217,0.399,1.217,1.194V280.793z M168.898,279.047v-2.594
			h-2.097v2.67L168.898,279.047z"/>
	</g>
	<g>
		<defs>
			<rect id="SVGID_23_" x="0.109" y="1.757" width="304.782" height="300.487"/>
		</defs>
		<clipPath id="SVGID_24_">
			<use xlink:href="#SVGID_23_"  overflow="visible"/>
		</clipPath>
		<path clip-path="url(#SVGID_24_)" fill="#FFFFFF" d="M176.725,280.793h-2.433c-0.813,0-1.218-0.398-1.218-1.199v-6.609h-1.036
			v-1.866h1.036v-2.623h2.184v2.623h1.409v1.866h-1.409v5.939h1.467V280.793z"/>
	</g>
	<g>
		<defs>
			<rect id="SVGID_25_" x="0.109" y="1.757" width="304.782" height="300.487"/>
		</defs>
		<clipPath id="SVGID_26_">
			<use xlink:href="#SVGID_25_"  overflow="visible"/>
		</clipPath>
		<path clip-path="url(#SVGID_26_)" fill="#FFFFFF" d="M180.173,269.729h-2.194v-2.264h2.194V269.729z M180.154,280.793h-2.152
			v-9.676h2.152V280.793z"/>
	</g>
	<g>
		<defs>
			<rect id="SVGID_27_" x="0.109" y="1.757" width="304.782" height="300.487"/>
		</defs>
		<clipPath id="SVGID_28_">
			<use xlink:href="#SVGID_27_"  overflow="visible"/>
		</clipPath>
		<path clip-path="url(#SVGID_28_)" fill="#FFFFFF" d="M188.165,279.594c0,0.801-0.407,1.199-1.218,1.199h-3.928
			c-0.824,0-1.236-0.398-1.236-1.199v-7.277c0-0.799,0.412-1.2,1.236-1.2h3.928c0.811,0,1.218,0.401,1.218,1.2V279.594z
			 M186.014,272.947h-2.078v6.025h2.078V272.947z"/>
	</g>
	<g>
		<defs>
			<rect id="SVGID_29_" x="0.109" y="1.757" width="304.782" height="300.487"/>
		</defs>
		<clipPath id="SVGID_30_">
			<use xlink:href="#SVGID_29_"  overflow="visible"/>
		</clipPath>
		<path clip-path="url(#SVGID_30_)" fill="#FFFFFF" d="M196.2,280.793h-2.204v-7.85l-2.062,0.039v7.811h-2.19v-9.676h2.19v0.354
			c0.515-0.082,1.021-0.16,1.527-0.236c0.623-0.104,1.139-0.155,1.54-0.155c0.8,0,1.198,0.392,1.198,1.179L196.2,280.793
			L196.2,280.793z"/>
	</g>
	<g>
		<defs>
			<rect id="SVGID_31_" x="0.109" y="1.757" width="304.782" height="300.487"/>
		</defs>
		<clipPath id="SVGID_32_">
			<use xlink:href="#SVGID_31_"  overflow="visible"/>
		</clipPath>
		<path clip-path="url(#SVGID_32_)" fill="#FFFFFF" d="M112.124,298.708h-2.184v-0.333c-1.481,0.259-2.31,0.393-2.49,0.393
			c-0.55,0-0.979-0.162-1.292-0.483c-0.313-0.325-0.47-0.761-0.47-1.316v-5.987c0-0.787,0.28-1.33,0.843-1.639
			c0.407-0.229,1.028-0.345,1.855-0.345c0.188,0,0.456,0.008,0.807,0.019c0.35,0.014,0.601,0.019,0.747,0.019v-5.312h2.184V298.708
			L112.124,298.708z M109.94,296.82v-5.956h-1.351c-0.484,0-0.728,0.241-0.728,0.729v4.625c0,0.471,0.23,0.706,0.689,0.706
			C108.66,296.926,109.122,296.895,109.94,296.82"/>
	</g>
	<g>
		<defs>
			<rect id="SVGID_33_" x="0.109" y="1.757" width="304.782" height="300.487"/>
		</defs>
		<clipPath id="SVGID_34_">
			<use xlink:href="#SVGID_33_"  overflow="visible"/>
		</clipPath>
		<path clip-path="url(#SVGID_34_)" fill="#FFFFFF" d="M119.971,297.514c0,0.797-0.412,1.194-1.237,1.194h-3.783
			c-0.822,0-1.236-0.397-1.236-1.194v-7.281c0-0.797,0.414-1.199,1.236-1.199h3.783c0.826,0,1.237,0.402,1.237,1.199v3.555
			l-0.604,0.602h-3.551v2.713h2.058v-1.609h2.098L119.971,297.514L119.971,297.514z M117.873,290.643h-2.058v2.317h2.058V290.643z"
			/>
	</g>
	<g>
		<defs>
			<rect id="SVGID_35_" x="0.109" y="1.757" width="304.782" height="300.487"/>
		</defs>
		<clipPath id="SVGID_36_">
			<use xlink:href="#SVGID_35_"  overflow="visible"/>
		</clipPath>
		<path clip-path="url(#SVGID_36_)" fill="#FFFFFF" d="M132.019,301.048c0,0.798-0.412,1.196-1.235,1.196h-3.812
			c-0.823,0-1.235-0.398-1.235-1.196v-1.554h2.117v1.158h1.981v-2.002h-2.25c-0.613,0-1.1-0.172-1.461-0.516
			c-0.362-0.346-0.542-0.82-0.542-1.431v-5.917c0-0.557,0.157-0.993,0.47-1.312c0.313-0.322,0.742-0.479,1.293-0.479
			c0.273,0,1.104,0.13,2.489,0.392v-0.354h2.185V301.048z M129.834,296.889v-5.949c-0.735-0.076-1.191-0.113-1.368-0.113
			c-0.472,0-0.709,0.234-0.709,0.699v4.637c0,0.484,0.242,0.727,0.727,0.727H129.834L129.834,296.889z"/>
	</g>
	<g>
		<defs>
			<rect id="SVGID_37_" x="0.109" y="1.757" width="304.782" height="300.487"/>
		</defs>
		<clipPath id="SVGID_38_">
			<use xlink:href="#SVGID_37_"  overflow="visible"/>
		</clipPath>
		<path clip-path="url(#SVGID_38_)" fill="#FFFFFF" d="M139.99,297.514c0,0.797-0.406,1.194-1.217,1.194h-3.925
			c-0.826,0-1.238-0.397-1.238-1.194v-7.281c0-0.797,0.412-1.199,1.238-1.199h3.925c0.811,0,1.217,0.402,1.217,1.199V297.514z
			 M137.843,290.861h-2.077v6.025h2.077V290.861z"/>
	</g>
	<g>
		<defs>
			<rect id="SVGID_39_" x="0.109" y="1.757" width="304.782" height="300.487"/>
		</defs>
		<clipPath id="SVGID_40_">
			<use xlink:href="#SVGID_39_"  overflow="visible"/>
		</clipPath>
		<path clip-path="url(#SVGID_40_)" fill="#FFFFFF" d="M148.027,296.766c0,0.605-0.183,1.082-0.549,1.428
			c-0.363,0.343-0.848,0.516-1.453,0.516h-4.454v-14.986h2.191v5.666c0.512-0.076,1.022-0.154,1.535-0.238
			c0.644-0.102,1.154-0.152,1.533-0.152c0.797,0,1.197,0.393,1.197,1.179V296.766L148.027,296.766z M145.823,296.161v-5.3
			l-2.061,0.041v5.984h1.36C145.59,296.889,145.823,296.646,145.823,296.161"/>
	</g>
	<g>
		<defs>
			<rect id="SVGID_41_" x="0.109" y="1.757" width="304.782" height="300.487"/>
		</defs>
		<clipPath id="SVGID_42_">
			<use xlink:href="#SVGID_41_"  overflow="visible"/>
		</clipPath>
		<path clip-path="url(#SVGID_42_)" fill="#FFFFFF" d="M155.85,297.514c0,0.797-0.408,1.194-1.232,1.194h-3.786
			c-0.822,0-1.233-0.397-1.233-1.194v-7.281c0-0.797,0.412-1.199,1.233-1.199h3.786c0.824,0,1.232,0.402,1.232,1.199v3.555
			l-0.603,0.602h-3.553v2.713h2.057v-1.609h2.099V297.514L155.85,297.514z M153.751,290.643h-2.057v2.317h2.057V290.643z"/>
	</g>
	<g>
		<defs>
			<rect id="SVGID_43_" x="0.109" y="1.757" width="304.782" height="300.487"/>
		</defs>
		<clipPath id="SVGID_44_">
			<use xlink:href="#SVGID_43_"  overflow="visible"/>
		</clipPath>
		<rect x="157.499" y="283.721" clip-path="url(#SVGID_44_)" fill="#FFFFFF" width="2.155" height="14.987"/>
	</g>
	<g>
		<defs>
			<rect id="SVGID_45_" x="0.109" y="1.757" width="304.782" height="300.487"/>
		</defs>
		<clipPath id="SVGID_46_">
			<use xlink:href="#SVGID_45_"  overflow="visible"/>
		</clipPath>
		<path clip-path="url(#SVGID_46_)" fill="#FFFFFF" d="M167.54,297.514c0,0.797-0.412,1.194-1.235,1.194h-3.785
			c-0.822,0-1.234-0.397-1.234-1.194v-7.281c0-0.797,0.412-1.199,1.234-1.199h3.785c0.823,0,1.235,0.402,1.235,1.199v3.555
			l-0.604,0.602h-3.553v2.713h2.059v-1.609h2.1L167.54,297.514L167.54,297.514z M165.441,290.643h-2.06v2.317h2.06V290.643z"/>
	</g>
	<g>
		<defs>
			<rect id="SVGID_47_" x="0.109" y="1.757" width="304.782" height="300.487"/>
		</defs>
		<clipPath id="SVGID_48_">
			<use xlink:href="#SVGID_47_"  overflow="visible"/>
		</clipPath>
		<path clip-path="url(#SVGID_48_)" fill="#FFFFFF" d="M173.305,298.71h-2.433c-0.813,0-1.215-0.399-1.215-1.196v-6.611h-1.036
			v-1.866h1.036v-2.623h2.181v2.623h1.412v1.866h-1.412v5.939h1.467V298.71z"/>
	</g>
	<g>
		<defs>
			<rect id="SVGID_49_" x="0.109" y="1.757" width="304.782" height="300.487"/>
		</defs>
		<clipPath id="SVGID_50_">
			<use xlink:href="#SVGID_49_"  overflow="visible"/>
		</clipPath>
		<path clip-path="url(#SVGID_50_)" fill="#FFFFFF" d="M180.604,297.514c0,0.797-0.405,1.194-1.217,1.194h-3.688
			c-0.812,0-1.216-0.397-1.216-1.194v-2.08h2.099v1.631h1.926v-1.535l-3.362-1.983c-0.438-0.259-0.66-0.612-0.66-1.053v-2.261
			c0-0.797,0.414-1.199,1.233-1.199h3.651c0.811,0,1.217,0.402,1.217,1.199v1.944h-2.079v-1.495h-1.926v1.396l3.353,1.965
			c0.447,0.254,0.672,0.616,0.672,1.072v2.398H180.604z"/>
	</g>
	<g>
		<defs>
			<rect id="SVGID_51_" x="0.109" y="1.757" width="304.782" height="300.487"/>
		</defs>
		<clipPath id="SVGID_52_">
			<use xlink:href="#SVGID_51_"  overflow="visible"/>
		</clipPath>
		<path clip-path="url(#SVGID_52_)" fill="#FFFFFF" d="M192.279,293.076h-2.174v-2.215l-1.734,0.041v7.808h-2.189v-9.675h2.189
			v0.354c0.454-0.082,0.902-0.166,1.35-0.246c0.545-0.098,0.998-0.146,1.361-0.146c0.798,0,1.197,0.393,1.197,1.176V293.076z"/>
	</g>
	<g>
		<defs>
			<rect id="SVGID_53_" x="0.109" y="1.757" width="304.782" height="300.487"/>
		</defs>
		<clipPath id="SVGID_54_">
			<use xlink:href="#SVGID_53_"  overflow="visible"/>
		</clipPath>
		<path clip-path="url(#SVGID_54_)" fill="#FFFFFF" d="M199.77,297.514c0,0.797-0.41,1.194-1.236,1.194h-3.783
			c-0.823,0-1.234-0.397-1.234-1.194v-7.281c0-0.797,0.411-1.199,1.234-1.199h3.783c0.826,0,1.236,0.402,1.236,1.199v3.555
			l-0.604,0.602h-3.553v2.713h2.059v-1.609h2.1v2.021H199.77z M199.464,285.864l-2.789,2.526h-1.61v-0.072l1.65-2.543h2.749V285.864
			L199.464,285.864z M197.671,290.643h-2.06v2.317h2.06V290.643z"/>
	</g>
	<g>
		<defs>
			<rect id="SVGID_55_" x="0.109" y="1.757" width="304.782" height="300.487"/>
		</defs>
		<clipPath id="SVGID_56_">
			<use xlink:href="#SVGID_55_"  overflow="visible"/>
		</clipPath>
		<path clip-path="url(#SVGID_56_)" fill="#FFFFFF" d="M207.798,298.71h-2.185v-0.338c-0.506,0.084-1.014,0.168-1.524,0.252
			c-0.62,0.094-1.129,0.144-1.53,0.144c-0.8,0-1.201-0.399-1.201-1.195v-8.536h2.176v7.853l2.08-0.046v-7.807h2.186L207.798,298.71
			L207.798,298.71z"/>
	</g>
	<g>
		<defs>
			<rect id="SVGID_57_" x="0.109" y="1.757" width="304.782" height="300.487"/>
		</defs>
		<clipPath id="SVGID_58_">
			<use xlink:href="#SVGID_57_"  overflow="visible"/>
		</clipPath>
		<path clip-path="url(#SVGID_58_)" fill="#FFFFFF" d="M213.562,298.71h-2.432c-0.812,0-1.217-0.399-1.217-1.196v-6.611h-1.034
			v-1.866h1.034v-2.623h2.184v2.623h1.41v1.866h-1.41v5.939h1.465V298.71z"/>
	</g>
	<g>
		<defs>
			<rect id="SVGID_59_" x="0.109" y="1.757" width="304.782" height="300.487"/>
		</defs>
		<clipPath id="SVGID_60_">
			<use xlink:href="#SVGID_59_"  overflow="visible"/>
		</clipPath>
		<path clip-path="url(#SVGID_60_)" fill="#FFFFFF" d="M217.014,287.646h-2.195v-2.262h2.195V287.646z M216.993,298.708h-2.154
			v-9.676h2.154V298.708z"/>
	</g>
	<g>
		<defs>
			<rect id="SVGID_61_" x="0.109" y="1.757" width="304.782" height="300.487"/>
		</defs>
		<clipPath id="SVGID_62_">
			<use xlink:href="#SVGID_61_"  overflow="visible"/>
		</clipPath>
		<rect x="218.682" y="283.721" clip-path="url(#SVGID_62_)" fill="#FFFFFF" width="2.152" height="14.987"/>
	</g>
	<g>
		<defs>
			<rect id="SVGID_63_" x="0.109" y="1.757" width="304.782" height="300.487"/>
		</defs>
		<clipPath id="SVGID_64_">
			<use xlink:href="#SVGID_63_"  overflow="visible"/>
		</clipPath>
		<path clip-path="url(#SVGID_64_)" fill="#FFFFFF" d="M224.695,287.646h-2.193v-2.262h2.193V287.646z M224.676,298.708h-2.154
			v-9.676h2.154V298.708z"/>
	</g>
	<g>
		<defs>
			<rect id="SVGID_65_" x="0.109" y="1.757" width="304.782" height="300.487"/>
		</defs>
		<clipPath id="SVGID_66_">
			<use xlink:href="#SVGID_65_"  overflow="visible"/>
		</clipPath>
		<path clip-path="url(#SVGID_66_)" fill="#FFFFFF" d="M232.385,297.514c0,0.797-0.404,1.194-1.215,1.194h-3.689
			c-0.811,0-1.217-0.397-1.217-1.194v-2.08h2.098v1.631h1.927v-1.535l-3.36-1.983c-0.441-0.259-0.664-0.612-0.664-1.053v-2.261
			c0-0.797,0.416-1.199,1.238-1.199h3.65c0.808,0,1.214,0.402,1.214,1.199v1.944h-2.078v-1.495h-1.927v1.396l3.354,1.965
			c0.445,0.254,0.671,0.616,0.671,1.072v2.398H232.385z"/>
	</g>
	<g>
		<defs>
			<rect id="SVGID_67_" x="0.109" y="1.757" width="304.782" height="300.487"/>
		</defs>
		<clipPath id="SVGID_68_">
			<use xlink:href="#SVGID_67_"  overflow="visible"/>
		</clipPath>
		<path clip-path="url(#SVGID_68_)" fill="#FFFFFF" d="M240.154,298.71h-2.098v-0.335c-0.496,0.073-0.996,0.152-1.494,0.229
			c-0.65,0.097-1.145,0.144-1.484,0.144c-0.796,0-1.197-0.394-1.197-1.179v-3.485c0-0.8,0.414-1.199,1.237-1.199h2.958v-2.221
			h-2.098v1.378h-1.982v-1.811c0-0.797,0.411-1.195,1.236-1.195h3.707c0.812,0,1.215,0.398,1.215,1.195V298.71L240.154,298.71z
			 M238.076,296.965v-2.597h-2.098v2.673L238.076,296.965z"/>
	</g>
	<g>
		<defs>
			<rect id="SVGID_69_" x="0.109" y="1.757" width="304.782" height="300.487"/>
		</defs>
		<clipPath id="SVGID_70_">
			<use xlink:href="#SVGID_69_"  overflow="visible"/>
		</clipPath>
		<path clip-path="url(#SVGID_70_)" fill="#FFFFFF" d="M248.184,296.766c0,0.605-0.184,1.082-0.547,1.428
			c-0.365,0.343-0.85,0.516-1.457,0.516h-4.451v-14.986h2.188v5.666c0.513-0.076,1.022-0.154,1.536-0.238
			c0.645-0.102,1.152-0.152,1.533-0.152c0.797,0,1.195,0.393,1.195,1.179v6.589H248.184z M245.979,296.161v-5.3l-2.062,0.041v5.984
			h1.36C245.747,296.889,245.979,296.646,245.979,296.161"/>
	</g>
	<g>
		<defs>
			<rect id="SVGID_71_" x="0.109" y="1.757" width="304.782" height="300.487"/>
		</defs>
		<clipPath id="SVGID_72_">
			<use xlink:href="#SVGID_71_"  overflow="visible"/>
		</clipPath>
		<rect x="249.812" y="283.721" clip-path="url(#SVGID_72_)" fill="#FFFFFF" width="2.152" height="14.987"/>
	</g>
	<g>
		<defs>
			<rect id="SVGID_73_" x="0.109" y="1.757" width="304.782" height="300.487"/>
		</defs>
		<clipPath id="SVGID_74_">
			<use xlink:href="#SVGID_73_"  overflow="visible"/>
		</clipPath>
		<path clip-path="url(#SVGID_74_)" fill="#FFFFFF" d="M259.848,297.514c0,0.797-0.41,1.194-1.238,1.194h-3.78
			c-0.824,0-1.233-0.397-1.233-1.194v-7.281c0-0.797,0.409-1.199,1.233-1.199h3.78c0.828,0,1.238,0.402,1.238,1.199v3.555
			l-0.604,0.602h-3.553v2.713h2.059v-1.609h2.1v2.021H259.848z M257.75,290.643h-2.059v2.317h2.059V290.643z"/>
	</g>
	<g>
		<defs>
			<rect id="SVGID_75_" x="0.109" y="1.757" width="304.782" height="300.487"/>
		</defs>
		<clipPath id="SVGID_76_">
			<use xlink:href="#SVGID_75_"  overflow="visible"/>
		</clipPath>
		<path clip-path="url(#SVGID_76_)" fill="#FFFFFF" d="M267.521,297.514c0,0.797-0.406,1.194-1.22,1.194h-3.688
			c-0.81,0-1.216-0.397-1.216-1.194v-2.08h2.1v1.631h1.926v-1.535l-3.363-1.983c-0.438-0.259-0.66-0.612-0.66-1.053v-2.261
			c0-0.797,0.414-1.199,1.236-1.199h3.65c0.809,0,1.215,0.402,1.215,1.199v1.944h-2.078v-1.495h-1.926v1.396l3.354,1.965
			c0.445,0.254,0.67,0.616,0.67,1.072V297.514L267.521,297.514z"/>
	</g>
	<rect x="0.109" y="1.757" fill="none" width="304.782" height="300.487"/>
	<path fill="#EC671F" d="M304.04,211.986c-0.989-1.979-2.582-3.588-4.599-4.655c-1.713-0.91-3.604-1.371-5.616-1.371
		c-0.218,0-0.433,0.006-0.65,0.019c-2.026,0.097-3.86,0.795-5.362,2.02c0.178-1.264,0.287-2.503,0.334-3.716
		c0.146-3.992-0.438-7.65-1.744-10.884c-1.438-3.549-3.729-6.387-6.862-8.475c-2.909-1.89-6.185-2.846-9.728-2.846
		c-0.433,0-0.867,0.013-1.312,0.041c0.459-2.686-0.288-5.249-2.182-7.271c-1.646-1.748-3.771-2.945-6.324-3.561
		c-0.493-0.118-0.991-0.2-1.491-0.268c0.188-0.24,0.379-0.486,0.547-0.703c2.099-2.7,2.495-5.871,1.077-8.729
		c-0.977-1.948-2.582-3.522-4.65-4.56c-1.674-0.832-3.484-1.256-5.39-1.256c-0.196,0-0.394,0.004-0.608,0.015
		c-2.862,0.138-5.33,1.512-6.977,3.87c-1.273,1.662-2.408,3.016-3.361,4.021c-0.816,0.854-1.838,1.932-3.017,3.184
		c0.663-1.174,1.339-2.385,2.021-3.623l4.184-7.607c1.533-2.798,2.904-5.236,4.033-7.193c2-3.25,2.111-6.754,0.303-9.622
		c-0.262-0.419-0.573-0.795-0.889-1.169c0.131-0.029,0.246-0.036,0.379-0.067c2.176-0.467,4.277-1.32,6.252-2.537l0.277-0.174
		l0.258-0.205c0.731-0.578,1.595-1.371,2.643-2.418c1.184-1.185,2.184-2.417,2.956-3.662l0.11-0.184
		c2.563-4.484,1.272-7.943,0.273-9.61c-1.346-2.241-3.425-3.883-6.006-4.744c-1.387-0.459-2.848-0.694-4.35-0.694
		c-0.887,0-1.801,0.083-2.715,0.245c-3.059,0.546-5.588,2.209-7.401,4.938l-1.761,2.803c-0.983-0.341-2.155-0.558-3.565-0.558
		h-0.343c-0.118-1.598-0.658-2.858-1.133-3.676c-1.289-2.219-3.349-3.853-5.969-4.729c-1.23-0.409-2.518-0.617-3.834-0.617
		c-1.23,0-2.5,0.185-3.777,0.546c-2.846,0.814-5.256,2.66-7.045,5.445l-2.143,3.507c-0.572,0.015-1.127,0.023-1.65,0.023h-3.51
		l-0.348,0.01c-2.805,0.176-5.378,1.068-7.646,2.646c-2.279,1.576-3.929,3.462-4.901,5.6c-1.368,3.011-1.117,6.201,0.687,8.749
		c1.223,1.73,3.055,2.868,5.473,3.409c-0.078,0.133-0.154,0.267-0.232,0.4c-1.662,2.884-3.242,5.604-4.74,8.153
		c-1.527,2.604-2.859,4.924-3.99,6.961l-1.484,2.673c-0.812,1.062-1.609,2.101-2.389,3.108c-0.207-1.055-0.459-2.09-0.756-3.082
		c-0.623-2.096-1.27-4.098-1.926-5.956c-0.419-1.179-0.359-1.724-0.345-1.82l0.039-0.232l0.021-0.23
		c0.15-1.822,0.815-2.703,1.299-3.204c1.867-1.925,3.685-4.148,5.412-6.614c1.961-2.816,2.215-6.092,0.684-9.017
		c-1.124-2.125-2.946-3.812-5.284-4.878c-1.837-0.83-3.817-1.251-5.896-1.251c-0.205,0-0.412,0.002-0.619,0.012
		c-2.842,0.111-5.338,1.165-7.196,3.032c-0.705,0.7-1.654,1.796-2.991,3.447c-1.176,1.455-2.546,3.162-4.105,5.113
		c-1.549,1.935-3.207,3.98-4.967,6.131c-1.799,2.186-3.506,4.289-5.129,6.302c-0.426,0.53-0.843,1.046-1.244,1.547
		c0.647-3.106,0.492-6.136-0.464-9.008c-0.824-2.469-2.85-5.845-7.991-7.948c0,0-0.462,0.02-1.25,0.02
		c-0.391-0.005-0.863-0.013-1.409-0.022c-0.537,0.022-1.149,0.044-1.812,0.073c-0.659,0-1.368,0.068-2.118,0.137
		c-0.748,0.058-1.534,0.131-2.341,0.254c-0.81,0.091-1.638,0.235-2.479,0.393c-0.844,0.128-1.691,0.315-2.535,0.532
		c-1.703,0.349-3.363,0.881-4.937,1.343c-0.768,0.291-1.542,0.488-2.247,0.763c-0.711,0.26-1.386,0.505-2.01,0.732
		c-2.484,0.938-4.156,1.667-4.156,1.667s1.255-1.356,3.583-2.811c1.144-0.757,2.568-1.492,4.139-2.19
		c0.8-0.306,1.612-0.68,2.479-0.94c0.868-0.257,1.74-0.55,2.641-0.742c0.899-0.21,1.805-0.377,2.706-0.488
		c0.894-0.167,1.792-0.184,2.655-0.222c0.86-0.072,1.699-0.017,2.489,0.038c0.79,0.028,1.53,0.109,2.209,0.25
		c0.607,0.104,1.142,0.206,1.639,0.323l0.953-36.59c0.926-0.094,1.867-0.166,2.764-0.298c5.032-0.745,9.604-2.087,13.595-3.986
		c4.063-1.932,7.476-4.264,10.14-6.928c4.026-4.025,2.995-7.972,2.357-9.501c-0.698-1.653-2.215-3.92-5.484-5.344
		c-1.908-0.831-4.017-1.293-6.271-1.377l-0.551-0.01c-2.607,0-4.845,0.682-6.645,2.033l-0.248,0.197
		c-0.651,0.548-1.328,1.05-2.03,1.504c-0.059,0.058-0.098,0.105-0.156,0.167c-0.525,0.573-1.243,1-1.95,1.538
		c-0.699,0.56-1.569,0.901-2.426,1.355c-0.87,0.421-1.822,0.712-2.782,1.038c-0.979,0.225-1.977,0.48-2.984,0.634
		c-1.013,0.096-2.022,0.253-3.021,0.253c-0.997,0.058-1.976,0.01-2.918-0.055c-0.944-0.021-1.843-0.188-2.696-0.296
		c-0.855-0.119-1.65-0.3-2.382-0.461c-2.923-0.693-4.718-1.597-4.718-1.597s1.988,0.178,4.898,0.328
		c1.458,0.046,3.148,0.115,4.946,0.062c0.446-0.014,0.904-0.024,1.366-0.036c0.457-0.041,0.921-0.082,1.388-0.101
		c0.939-0.022,1.871-0.199,2.811-0.311c0.934-0.124,1.851-0.331,2.759-0.511c0.265-0.092,0.537-0.159,0.808-0.229l0.624-23.902
		l-3.173,0.482c-1.867-3.105-1.835-5.428-4.469-5.78c-2.333-0.312-3.672,3.59-4.866,2.068c-2.085-2.658,4.815-4.961,4.283-8.476
		c-0.786-3.636-3.965,4.107-5.997,2.023c-2.585-2.644-0.691-3.669-1.505-7.058c-0.732-3.052-3.779-4.097-4.037-7.384
		c-0.464-5.931,8.94-10.269,5.151-14.268c-3.788-3.999-5.333,6.938-6.85,10.526c-3.128,7.385-8.869,1.542-5.655,10.675
		c0.716,2.03-3.136,8.604-5.57,7.208c-1.906-1.091-0.033-6.681-3.153-5.696c-4.154-2.366-1.563-7.661-2.023-12.021
		c-0.623-2.78-1.764-1.017-2.029,0.103c-1.156,3.747-6.006,11.09-6.428,5.065c-0.139-2.005,3.284-14.323-1.339-10.134
		c-0.903,0.792-1.363,3.681-2.272,4.017c-6.133,2.264-2.31-13.692-1.884-16.696c0.296-2.086-0.369-5.379-2.944-4.858
		c-2.268,0.46-2.146,5.446-1.908,7.557c0.898,8.008,3.958,14.257-1.174,16.03c-5.982,2.067-5.343,18.946-9.374,10.873
		c-4.813-9.646-8.755,6.883-11.106-8.697c-0.4-2.651,1.101-9.095-1.669-10.23c-2.837-1.163-2.851,4.012-2.219,6.554
		c0.662,2.654,7.489,16.562,0.402,15.199c-1.98-0.381-2.459-4.209-4.481-3.708c-2.035,0.503-2.618,5.647-5.61,3.58
		c-2.441-1.689-0.024-18.295-4.542-14.686c-5.032,4.018,5.573,14.462-4.187,14.941c-3.893,0.954,3.159,8.798-2.406,8.226
		c-3.424-1.583-0.771-6.919-2.724-9.542c-2.731-3.672-3.787,2.419-2.625,5.454c1.082,2.828,4.85,3.903,5.238,7.193
		c0.371,3.142-5.436,1.497-4.802,4.24c0.631,2.744,2.809,2.214,1.865,4.356c-0.94,2.144-2.443,0.958-3.549,3.013
		c-0.542,1.015-0.535,2.027-1.289,2.971c-0.598,0.75-1.898,0.263-2.405,1.031c-0.53,0.805-0.619,1.764-0.515,2.785l45.608-6.59
		l-48.401,9.154l7.751,31.003c-0.47,0.656-0.974,1.306-1.412,1.969c-3.557,5.432-5.908,10.986-6.983,16.507
		c-1.151,5.886-0.746,11.35,1.191,16.187c1.386,3.565,3.237,6.652,5.519,9.225c-1.378,0.291-2.754,0.699-4.117,1.228
		c-3.568,1.385-6.774,3.701-9.529,6.88c-2.937,3.391-4.707,8.123-5.262,14.142c-0.293,3.772,0.271,7.368,1.672,10.687
		c1.374,3.258,3.423,6.116,6.091,8.493c2.578,2.3,5.681,4.123,9.217,5.412c3.486,1.279,7.276,1.929,11.263,1.929
		c4.764,0,9.258-0.923,13.354-2.731c0.446-0.197,0.88-0.437,1.323-0.653l14.46,57.812l14.097-2.137l39.022-5.918l13.178-1.998
		c0.036,0.043,0.063,0.094,0.096,0.135c0.518,0.676,1.123,1.297,1.78,1.894c-0.26-0.312-0.559-0.597-0.799-0.927
		c-1.224-1.696-2.204-3.518-2.906-5.365c-1.409-3.695-1.853-7.365-1.862-10.449c-0.048-3.095,0.396-5.635,0.699-7.39
		c0.349-1.753,0.68-2.718,0.68-2.718s-0.14,1.009-0.25,2.771c-0.111,1.764-0.147,4.289,0.149,7.271
		c0.132,1.488,0.407,3.082,0.768,4.738c0.355,1.658,0.949,3.344,1.639,5.029c0.702,1.688,1.704,3.286,2.814,4.814
		c1.139,1.521,2.551,2.841,4.061,4.027c1.569,1.105,3.214,2.146,5.004,2.842c0.521,0.242,1.063,0.406,1.598,0.598
		c1.616,0.277,3.302,0.453,5.069,0.488l0.592,0.004c3.6,0,7.424-0.59,11.374-1.752c2.931-0.866,5.81-2.184,8.612-3.932
		c2.801,3.838,7.488,5.947,13.55,5.947c2.536,0,4.84-0.225,6.847-0.671c2.051-0.454,3.9-1.09,5.479-1.884
		c0.949-0.471,1.861-0.971,2.734-1.491c0.312,0.282,0.629,0.56,0.954,0.825c2.22,1.813,4.874,2.832,7.899,3.027
		c0.131,0.01,0.264,0.019,0.398,0.022c-0.533,1.121-1.053,2.206-1.553,3.255c-2.062,4.303-3.43,7.241-4.18,8.986
		c-2.317,4.971-1.264,8.593,0.037,10.758c1.564,2.615,3.908,4.505,6.759,5.451c1.366,0.455,2.784,0.688,4.218,0.688
		c1.389,0,2.805-0.22,4.188-0.649c3.179-0.984,5.656-3.103,7.16-6.112c0.254-0.503,0.854-1.793,1.801-3.874
		c0.898-1.99,1.986-4.432,3.255-7.323c1.25-2.86,2.678-6.104,4.288-9.741c0.563-1.271,1.136-2.562,1.721-3.869
		c2.668,1.684,5.907,2.556,9.646,2.601c1.547,0.16,3.261,0.241,5.093,0.241c0.946,0,1.936-0.022,2.972-0.064
		c3.2-0.133,6.553-0.604,9.973-1.391c3.476-0.805,6.951-2.018,10.332-3.61c3.527-1.655,6.787-3.831,9.812-6.571
		c3.281-3.16,6.184-6.097,8.63-8.726c2.547-2.735,4.384-4.929,5.622-6.692C305.09,218.021,305.459,214.832,304.04,211.986
		 M124.396,38.458c0.118-0.976,0.263-1.959,0.459-2.917c0.318,1.879-0.041,3.833,0.306,5.692c0.323,1.723,1.658,2.31,2.87,3.026
		c-1.404-0.046-2.894-0.613-3.484-2.241C124.145,40.906,124.253,39.619,124.396,38.458 M124.87,14.386
		c0.381-0.379,0.957-0.76,1.479-0.601c0.549,0.138,0.912,0.489,1.255,1.002c-0.351-0.27-0.648-0.498-1.058-0.631
		c-0.581-0.152-1.203,0.257-1.576,0.762c-0.768,0.816-1.139,2.096-1.505,3.191C123.527,16.768,123.979,15.274,124.87,14.386
		 M61.742,18.443c-0.45,0.046-0.747,0.472-0.934,0.915c-0.424,0.998-0.482,2.154-0.634,3.234c-0.159-1.125-0.186-2.405,0.282-3.443
		c0.231-0.513,0.624-1.036,1.163-1.033c0.477-0.048,0.866,0.325,1.181,0.697C62.472,18.623,62.121,18.409,61.742,18.443
		 M34.588,38.955c-0.349,0.72-0.366,1.634-0.382,2.44c-0.282-0.862-0.321-1.862,0.053-2.698c0.561-1.253,1.629-0.542,2.134,0.332
		C35.79,38.586,35.062,37.983,34.588,38.955 M38.107,53.424c-0.472,0.26-0.965,0.462-1.457,0.662
		c-0.272,0.108-0.985,0.293-1.121,0.554c-0.101,0.605,0.721,1.203,1.044,1.53c0.415,0.429,0.836,0.854,1.106,1.429
		c0.498,1.05,0.327,2.527-0.265,3.469c-0.75,1.193-2.047,1.05-3.095,1.646c-1.117,0.639-1.659,1.768-1.604,3.212
		c-0.521-1.879,0.412-3.455,1.869-4.214c0.646-0.335,1.542-0.351,2.045-0.975c0.55-0.687,0.759-1.938,0.36-2.779
		c-0.411-0.874-1.193-1.396-1.708-2.17c-0.212-0.313-0.379-0.701-0.342-1.113c0.045-0.521,0.402-0.707,0.783-0.851
		c0.84-0.325,1.719-0.489,2.546-0.874c0.643-0.294,1.352-0.737,1.631-1.532C39.693,52.417,38.842,53.021,38.107,53.424
		 M43.112,41.132c-0.443,0.111-0.913,0.094-1.346,0.239c-0.401,0.132-0.301,0.761-0.311,1.144c-0.217-0.277-0.398-0.619-0.412-1.01
		c-0.017-0.669,0.543-0.975,1.014-1.105c0.974-0.268,1.896-0.243,2.773-0.875C44.621,40.455,43.856,40.942,43.112,41.132
		 M49.86,55.626c-0.858,0-1.552-0.82-1.552-1.833c0-1.012,0.694-1.832,1.552-1.832c0.86,0,1.556,0.82,1.556,1.832
		C51.416,54.807,50.721,55.626,49.86,55.626 M60.419,41.995c-0.838-0.036-1.551-0.328-2.23-0.911
		c-0.654-0.561-1.237-1.46-2.007-1.792c-0.767-0.332-1.359,0.509-1.84,1.072c-0.636,0.735-1.462,1.331-2.345,1.513
		c-1.589,0.352-3.083-0.648-3.688-2.391c0.883,1.507,2.417,2.245,3.913,1.543c0.776-0.364,1.328-1.007,1.901-1.692
		c0.535-0.64,1.238-1.223,2.04-1.019c1.573,0.402,2.279,2.586,3.901,2.96c1.581,0.365,3.088-0.231,3.932-1.876
		C63.416,41.209,62.02,42.028,60.419,41.995 M86.563,4.58c-0.293,1.205-0.349,2.465-0.53,3.691
		c-0.169-1.323-0.159-2.838,0.229-4.105c0.378-1.231,1.701-1.957,2.551-0.874C87.788,2.605,86.887,3.378,86.563,4.58 M77.434,95.715
		c-1.085,0.659-2.638,1.602-4.499,2.734c-0.896,0.607-1.896,1.192-2.909,1.876c-1.027,0.667-2.077,1.399-3.151,2.169
		c-1.1,0.729-2.145,1.594-3.251,2.404c-1.088,0.836-2.124,1.757-3.194,2.633c-0.976,0.97-2.053,1.848-2.958,2.846
		c-0.879,1.014-1.896,1.908-2.631,2.958c-0.781,1.019-1.652,1.941-2.238,2.97c-0.6,1.012-1.368,1.896-1.787,2.853
		c-0.467,0.935-0.949,1.788-1.383,2.558c-0.337,0.811-0.626,1.516-0.867,2.096c-0.502,1.179-0.846,1.87-0.846,1.87
		s-0.046-0.735-0.027-2.048c0.017-0.656,0.01-1.472,0.094-2.393c0.169-0.899,0.368-1.927,0.646-3.045
		c0.193-1.154,0.74-2.268,1.237-3.498c0.458-1.257,1.187-2.443,1.944-3.679c0.705-1.282,1.705-2.388,2.652-3.575
		c0.946-1.19,2.123-2.176,3.201-3.267c1.191-0.952,2.35-1.954,3.595-2.778c1.248-0.821,2.469-1.643,3.736-2.273
		c1.229-0.699,2.484-1.242,3.671-1.745c1.164-0.55,2.347-0.886,3.4-1.26c2.142-0.669,3.972-1.058,5.268-1.242
		c1.295-0.205,2.047-0.212,2.047-0.212S78.547,95.047,77.434,95.715 M79.753,37.708c-0.501,1.308-1.198,2.853-2.287,3.595
		c-1.621,1.106-2.838-0.949-3.599-2.363c-0.666-1.24-1.477-3.34-2.923-3.399c1.32-0.328,2.361,1.255,3.062,2.334
		c0.712,1.088,1.896,3.688,3.292,2.457c0.822-0.725,1.438-1.915,1.928-2.938c0.636-1.336,1.083-2.791,1.543-4.218
		C80.62,34.716,80.3,36.294,79.753,37.708 M84.453,56.142c-1.645,0-2.977-1.571-2.977-3.51c0-1.938,1.333-3.509,2.977-3.509
		c1.646,0,2.979,1.571,2.979,3.509C87.432,54.571,86.099,56.142,84.453,56.142 M89.277,50.458c-1.02,0-1.846-0.974-1.846-2.174
		c0-1.202,0.826-2.174,1.846-2.174c1.016,0,1.843,0.973,1.843,2.174C91.12,49.484,90.293,50.458,89.277,50.458 M118.982,46.962
		c0.684,0,1.24,0.653,1.24,1.461c0,0.809-0.556,1.46-1.24,1.46c-0.687,0-1.242-0.651-1.242-1.46
		C117.74,47.615,118.295,46.962,118.982,46.962 M94.476,20.442c0.402-0.562,1.122-0.952,1.687-0.465
		c-0.538,0.29-0.868,0.734-1.222,1.279c-0.197,0.303-0.396,0.614-0.624,0.889c-0.073,0.087-0.318,0.446-0.439,0.446
		C93.822,21.827,94.06,21.027,94.476,20.442 M108.779,102.176c-0.732,2.238-1.634,4.828-2.644,7.584
		c-0.997,2.763-2.136,5.679-3.271,8.598c-1.177,2.901-2.349,5.804-3.52,8.498c-1.156,2.7-2.28,5.202-3.283,7.331
		c-1.981,4.266-3.489,7.037-3.489,7.037s0.808-3.05,2.296-7.512c0.732-2.237,1.633-4.828,2.643-7.584
		c0.998-2.763,2.139-5.679,3.274-8.596c1.178-2.9,2.352-5.804,3.522-8.498c1.159-2.7,2.283-5.202,3.283-7.331
		c1.981-4.267,3.487-7.036,3.487-7.036S110.268,97.715,108.779,102.176 M110.752,45.361c-1.076,0.083-2.101-0.304-2.867-1.237
		c-0.974-1.197-1.333-2.861-1.398-4.472c0.613,2.436,1.918,5.188,4.412,4.759c1.267-0.217,2.286-1.396,3.013-2.554
		c0.668-1.059,1.225-2.202,1.808-3.326C115.06,41.325,113.592,45.144,110.752,45.361 M161.074,172.104
		c-0.068,1.041-0.26,2.013-0.571,2.896c-0.157,0.447-0.328,0.723-0.448,0.882c-0.176-0.104-0.336-0.239-0.5-0.411
		c-0.213-0.225-0.363-0.455-0.473-0.734C159.329,174.336,159.883,173.529,161.074,172.104 M161.111,206.889
		c-1.35,2.135-3.2,4.905-4.883,7.73c-0.424,0.701-0.844,1.404-1.217,2.113c-0.357,0.715-0.761,1.394-1.054,2.086
		c-0.624,1.365-1.095,2.676-1.211,3.812c-0.057,0.567-0.057,1.095,0.054,1.542c0.102,0.445,0.256,0.844,0.454,1.129
		c0.368,0.604,0.735,0.875,0.716,0.893c0,0-0.099-0.045-0.281-0.131c-0.178-0.092-0.477-0.193-0.765-0.465
		c-0.317-0.233-0.66-0.611-0.922-1.117c-0.289-0.5-0.474-1.14-0.542-1.832c-0.175-1.4,0.131-2.99,0.665-4.555
		c0.266-0.783,0.575-1.578,0.962-2.342c0.374-0.771,0.789-1.531,1.219-2.281c0.907-1.469,1.881-2.881,2.895-4.123
		c0.996-1.252,2.005-2.357,2.912-3.26c1.8-1.818,3.212-2.816,3.212-2.816S162.473,204.768,161.111,206.889 M208.857,202.523
		c-0.617,1.351-1.377,2.906-2.215,4.552c-0.826,1.655-1.764,3.385-2.674,5.131c-0.939,1.721-1.879,3.446-2.762,5.062
		c-0.87,1.617-1.684,3.125-2.38,4.416c-0.67,1.305-1.2,2.401-1.474,3.205c-0.307,0.797-0.242,1.305-0.242,1.305
		s-0.043-0.117-0.121-0.342c-0.047-0.231-0.107-0.598-0.076-1.043c0.037-0.9,0.279-2.162,0.721-3.604
		c0.862-2.902,2.492-6.557,4.363-10.057c0.96-1.741,1.934-3.469,2.932-5.041c0.981-1.578,1.951-3.021,2.823-4.229
		c1.728-2.432,3.075-3.926,3.075-3.926S210.121,199.833,208.857,202.523 M223.438,144.202c-1.069,1.795-2.187,3.702-3.367,5.722
		c-1.198,2.055-2.372,4.145-3.514,6.26c-0.646,1.194-1.266,2.293-1.869,3.344l-0.104,0.158c-1.268,1.646-2.393,2.992-3.344,3.994
		c-0.758,0.795-1.725,1.782-2.896,2.973c0.619-1.098,1.242-2.215,1.864-3.348l12.336-21.695l2.507-0.086
		C224.552,142.336,224.016,143.23,223.438,144.202 M258.734,210.104c-0.567,0.816-1.207,1.771-1.862,2.806
		c-0.646,1.034-1.299,2.151-1.908,3.293c-0.338,0.553-0.582,1.153-0.888,1.712c-0.278,0.579-0.551,1.145-0.812,1.693
		c-0.256,0.555-0.466,1.104-0.703,1.619c-0.234,0.517-0.412,1.017-0.601,1.479c-0.17,0.466-0.385,0.883-0.511,1.271
		c-0.133,0.387-0.27,0.721-0.374,0.998c-0.224,0.559-0.37,0.879-0.37,0.879s-0.042-0.342-0.071-0.947
		c-0.026-0.604-0.065-1.477,0.076-2.506c0.058-0.519,0.103-1.084,0.251-1.662c0.139-0.578,0.234-1.211,0.457-1.823
		c0.225-0.612,0.387-1.274,0.678-1.896c0.283-0.627,0.547-1.274,0.897-1.879c0.657-1.232,1.454-2.387,2.29-3.388
		c0.396-0.521,0.855-0.96,1.263-1.396c0.429-0.416,0.838-0.803,1.25-1.123c1.601-1.344,2.922-1.858,2.922-1.858
		S259.873,208.48,258.734,210.104"/>
	<g>
		<defs>
			<rect id="SVGID_77_" x="0.109" y="1.757" width="304.782" height="300.487"/>
		</defs>
		<clipPath id="SVGID_78_">
			<use xlink:href="#SVGID_77_"  overflow="visible"/>
		</clipPath>
		<path clip-path="url(#SVGID_78_)" fill="#FFFFFF" d="M98.481,149.041c-1.56,0-3.788,0.029-6.681,0.083
			c-2.898,0.058-5.905,0.084-9.021,0.084c2.337-4.898,4.647-9.966,6.93-15.202c2.283-5.235,4.567-10.465,6.851-15.705
			c2.282-5.231,4.619-10.357,7.016-15.368c2.394-5.012,4.929-9.743,7.603-14.2c5.9,2.004,11.528,3.232,16.872,3.676
			c5.345,0.444,10.274,0.333,14.785-0.335c4.51-0.667,8.519-1.838,12.027-3.507c3.509-1.672,6.375-3.618,8.604-5.847
			c1.223-1.226,1.612-2.366,1.17-3.426c-0.447-1.055-1.312-1.864-2.59-2.421c-1.281-0.556-2.701-0.862-4.261-0.92
			c-1.562-0.055-2.784,0.253-3.675,0.92c-4.234,3.564-9.356,5.625-15.37,6.18c-6.012,0.562-13.308-0.443-21.883-3.007
			c0.775-1.444,0.917-2.698,0.416-3.757c-0.501-1.058-1.337-1.781-2.504-2.173c-1.171-0.386-2.481-0.386-3.926,0
			c-1.449,0.392-2.674,1.311-3.676,2.758l-0.333,0.335c-6.014-0.891-12.422-0.919-19.213-0.086
			c-6.794,0.835-13.59,2.705-20.381,5.598c-7.016,3.007-13.113,6.683-18.291,11.025c-5.182,4.343-9.357,8.938-12.532,13.783
			c-3.173,4.846-5.236,9.688-6.18,14.534c-0.949,4.845-0.642,9.218,0.918,13.114c1.558,4.009,3.76,7.213,6.601,9.607
			c2.838,2.395,6.152,3.953,9.938,4.678c3.787,0.724,7.879,0.613,12.28-0.336c4.398-0.944,8.88-2.754,13.448-5.428
			c-0.559,1.002-1.061,1.978-1.503,2.924c-0.447,0.947-0.894,1.921-1.335,2.923h-1.339c-1.783,0.111-3.398,0.669-4.845,1.669
			c-1.446,1.002-2.449,2.087-3.007,3.259c-0.559,1.17-0.583,2.256-0.083,3.256c0.499,1.004,1.863,1.504,4.092,1.504
			c-3.564,6.24-7.267,11.223-11.109,14.953c-3.843,3.732-8.049,5.597-12.614,5.597c-3.118,0-5.542-0.587-7.267-1.755
			c-1.727-1.17-2.896-2.615-3.506-4.342c-0.614-1.725-0.753-3.535-0.419-5.434c0.333-1.891,1.058-3.531,2.171-4.924
			c1.113-1.393,2.59-2.396,4.429-3.012c1.838-0.609,3.868-0.469,6.097,0.42c1.335,0.559,2.393,0.559,3.173,0
			c0.778-0.555,1.255-1.338,1.419-2.338c0.169-1.002-0.056-2.061-0.666-3.172c-0.614-1.115-1.647-2.01-3.091-2.677
			c-1.561-0.554-3.705-0.918-6.43-1.084c-2.732-0.17-5.459,0.277-8.188,1.335c-2.729,1.062-5.179,2.842-7.35,5.344
			c-2.171,2.508-3.482,6.157-3.925,10.942c-0.226,2.899,0.193,5.601,1.251,8.103c1.058,2.509,2.616,4.681,4.679,6.518
			c2.058,1.839,4.534,3.287,7.434,4.345c2.896,1.062,6.014,1.589,9.354,1.589c4.01,0,7.713-0.752,11.113-2.258
			c3.395-1.504,6.625-3.617,9.69-6.349c3.06-2.728,5.929-5.983,8.601-9.772c2.674-3.785,5.234-7.906,7.685-12.361
			c2.448,0,4.982-0.025,7.602-0.084c2.618-0.057,5.649-0.141,9.107-0.252c1.444,0,2.782-0.5,4.009-1.504
			c1.223-1,2.112-2.088,2.672-3.256c0.556-1.17,0.638-2.255,0.25-3.258C101.18,149.542,100.153,149.041,98.481,149.041
			 M75.178,130.748c-3.065,2.396-6.267,4.373-9.604,5.931c-3.343,1.56-6.631,2.535-9.86,2.923c-3.229,0.392-5.989,0.083-8.269-0.918
			c-2.286-1.002-3.898-2.811-4.843-5.432c-0.949-2.612-0.922-6.205,0.08-10.772c1.561-6.906,4.596-12.722,9.108-17.459
			c4.508-4.732,9.632-8.547,15.368-11.443c5.733-2.896,11.637-4.9,17.708-6.014c6.067-1.113,11.443-1.558,16.122-1.336
			c-3.233,5.457-6.348,11.304-9.357,17.541c-3.007,6.239-5.903,12.528-8.688,18.878C80.829,125.653,78.237,128.354,75.178,130.748"
			/>
	</g>
	<g>
		<defs>
			<rect id="SVGID_79_" x="0.109" y="1.757" width="304.782" height="300.487"/>
		</defs>
		<clipPath id="SVGID_80_">
			<use xlink:href="#SVGID_79_"  overflow="visible"/>
		</clipPath>
		<path clip-path="url(#SVGID_80_)" fill="#FFFFFF" d="M241.061,132.335c1.06,0.225,2.365,0.167,3.928-0.167
			c1.559-0.333,3.06-0.944,4.51-1.838c0.557-0.445,1.279-1.111,2.17-2.005c0.893-0.889,1.617-1.78,2.172-2.674
			c0.891-1.559,1.001-2.894,0.336-4.007c-0.669-1.113-1.672-1.894-3.006-2.341c-1.339-0.444-2.786-0.528-4.345-0.249
			c-1.563,0.279-2.786,1.084-3.677,2.421c-0.561,0.894-1.168,1.865-1.836,2.923c-0.67,1.06-1.17,1.922-1.504,2.59
			c-1.002,1.561-1.312,2.785-0.918,3.674C239.279,131.557,240,132.113,241.061,132.335"/>
	</g>
	<g>
		<defs>
			<rect id="SVGID_81_" x="0.109" y="1.757" width="304.782" height="300.487"/>
		</defs>
		<clipPath id="SVGID_82_">
			<use xlink:href="#SVGID_81_"  overflow="visible"/>
		</clipPath>
		<path clip-path="url(#SVGID_82_)" fill="#FFFFFF" d="M253.008,161.986c-1.006-0.5-2.091-0.721-3.259-0.668
			c-1.172,0.059-2.089,0.584-2.761,1.589c-1.446,1.896-2.729,3.425-3.84,4.594c-1.115,1.169-2.619,2.757-4.51,4.761
			c-1.005,1.002-2.119,2.008-3.342,3.006c-1.227,1.004-2.451,1.896-3.677,2.674c-1.226,0.781-2.365,1.312-3.422,1.59
			c-1.062,0.275-1.867,0.142-2.425-0.42c-0.561-0.442-0.697-1.252-0.416-2.42c0.274-1.172,0.775-2.592,1.502-4.262
			c0.722-1.672,1.67-3.509,2.84-5.514c1.169-2.004,2.363-4.119,3.59-6.35c1.229-2.227,2.618-4.76,4.18-7.602
			c1.559-2.84,2.948-5.317,4.178-7.432c0.89-1.447,1-2.7,0.332-3.76c-0.668-1.058-1.646-1.808-2.924-2.255
			c-1.279-0.443-2.703-0.443-4.261,0c-1.56,0.447-2.841,1.45-3.842,3.008c-0.782,1.226-1.697,2.728-2.755,4.508
			c-1.062,1.785-2.172,3.676-3.344,5.681c-1.168,2.006-2.312,4.037-3.428,6.1c-0.762,1.412-1.488,2.696-2.199,3.928
			c-0.043,0.06-0.094,0.102-0.138,0.164c-1.446,1.896-2.728,3.426-3.839,4.595c-1.117,1.169-2.676,2.757-4.68,4.761
			c-1.002,1.002-2.116,2.008-3.342,3.006c-1.227,1.004-2.424,1.896-3.593,2.674c-1.169,0.781-2.28,1.312-3.339,1.59
			c-1.062,0.275-1.865,0.142-2.426-0.42c-0.557-0.442-0.696-1.252-0.414-2.42c0.275-1.172,0.775-2.592,1.501-4.262
			c0.726-1.672,1.672-3.509,2.841-5.514c1.169-2.004,2.363-4.119,3.594-6.35l13.865-24.389l9.854-0.335
			c1.447,0,2.783-0.529,4.015-1.589c1.224-1.055,2.112-2.171,2.673-3.34c0.553-1.168,0.665-2.228,0.333-3.174
			c-0.333-0.943-1.337-1.418-3.006-1.418c-0.894,0.111-2.063,0.167-3.513,0.167h-4.676l1.672-2.84c0.774-1.447,0.861-2.7,0.25-3.76
			c-0.615-1.058-1.588-1.807-2.924-2.255c-1.334-0.443-2.787-0.443-4.345,0c-1.562,0.448-2.841,1.45-3.842,3.008l-3.676,6.014
			c-1.78,0.111-3.398,0.167-4.845,0.167h-3.51c-1.783,0.111-3.398,0.669-4.843,1.672c-1.45,1.002-2.451,2.115-3.008,3.339
			c-0.562,1.228-0.501,2.313,0.167,3.257c0.669,0.949,2.173,1.421,4.51,1.421h3.012c0.998,0,1.943-0.056,2.836-0.167
			c-1.561,2.785-3.175,5.625-4.847,8.519c-1.666,2.898-3.257,5.625-4.761,8.186c-1.502,2.563-2.814,4.845-3.926,6.851
			c-0.664,1.192-1.217,2.188-1.68,3.026c-1.445,1.89-2.83,3.688-4.164,5.41c-1.334,1.729-3.287,3.536-5.847,5.429
			c-0.894,0.78-1.95,1.502-3.173,2.17c1.001-2.779,1.418-5.369,1.25-7.764c-0.165-2.396-0.559-4.62-1.169-6.686
			c-0.611-2.062-1.226-3.953-1.837-5.68c-0.614-1.725-0.812-3.259-0.584-4.596c0.219-2.671,1.168-4.871,2.838-6.598
			c1.672-1.725,3.285-3.701,4.848-5.93c0.775-1.114,0.891-2.199,0.336-3.257c-0.562-1.059-1.451-1.864-2.676-2.424
			c-1.229-0.556-2.562-0.806-4.01-0.75c-1.45,0.056-2.619,0.527-3.51,1.419c-0.56,0.559-1.42,1.561-2.588,3.007
			c-1.172,1.45-2.535,3.149-4.094,5.095c-1.562,1.949-3.232,4.009-5.01,6.181c-1.786,2.171-3.484,4.26-5.098,6.264
			c-1.614,2.005-3.037,3.787-4.258,5.349c-1.228,1.562-2.119,2.672-2.675,3.34c-0.668,1.002-1.588,2.087-2.757,3.258
			c-1.168,1.169-2.423,2.367-3.759,3.593s-2.702,2.396-4.092,3.507c-1.395,1.116-2.758,2.063-4.093,2.84
			c-2.674,1.672-5.264,2.758-7.769,3.258c-2.506,0.502-4.734,0.584-6.681,0.252c-1.952-0.334-3.565-1.086-4.845-2.258
			c-1.282-1.168-2.036-2.643-2.254-4.426c1.336,0.114,2.946,0.114,4.842,0c1.893-0.107,3.954-0.523,6.181-1.252
			c2.229-0.725,4.567-1.779,7.019-3.174c2.45-1.393,4.954-3.312,7.517-5.766c1.335-1.225,2.643-2.863,3.926-4.928
			c1.28-2.062,2.171-4.201,2.671-6.431c0.502-2.227,0.418-4.346-0.25-6.35c-0.667-2.005-2.23-3.506-4.676-4.51
			c-2.673-1.002-5.598-1.28-8.771-0.835c-3.173,0.446-6.295,1.56-9.357,3.34c-3.062,1.783-6.014,4.093-8.852,6.934
			c-2.84,2.84-5.32,6.096-7.435,9.771c-1.781,3.233-2.924,6.713-3.425,10.442c-0.5,3.733,0.028,7.323,1.589,10.774
			c1.111,2.564,3.032,4.566,5.761,6.014c2.729,1.45,5.847,2.286,9.357,2.508c3.507,0.223,7.184-0.193,11.024-1.255
			c3.843-1.055,7.436-2.864,10.776-5.43c1.092-0.798,2.166-1.664,3.233-2.56c0.217,0.676,0.467,1.356,0.775,2.062
			c0.668,1.444,1.619,2.698,2.84,3.755c1.227,1.062,2.646,1.924,4.258,2.592c1.617,0.668,3.367,1.059,5.264,1.169
			c1.892,0.108,3.785,0,5.682-0.333c3.448-0.109,7.293-0.861,11.525-2.254c3.418-1.126,6.688-2.919,9.813-5.316
			c0.04,0.324,0.06,0.66,0.121,0.971c0.948,4.623,4.263,6.934,9.944,6.934c2.002,0,3.839-0.164,5.511-0.501
			c1.671-0.335,3.285-0.89,4.845-1.669c1.559-0.777,3.116-1.779,4.68-3.008c0.886-0.697,1.843-1.512,2.842-2.393
			c0.031,0.209,0.035,0.436,0.08,0.637c0.949,4.623,4.262,6.934,9.938,6.934c2.005,0,3.845-0.164,5.511-0.501
			c1.672-0.335,3.287-0.89,4.852-1.669c1.553-0.777,3.113-1.779,4.675-3.008c1.558-1.227,3.283-2.729,5.181-4.514
			c3.006-2.891,5.428-5.452,7.265-7.682c1.839-2.228,3.315-4.066,4.428-5.515c0.778-1.003,0.944-1.947,0.503-2.84
			C254.732,163.188,254.007,162.49,253.008,161.986 M115.518,164.409c1.339-2.335,2.782-4.511,4.346-6.515
			c1.557-2.006,3.115-3.758,4.676-5.263c1.56-1.505,3.062-2.673,4.512-3.507c1.446-0.838,2.728-1.255,3.843-1.255
			c2.226,0,3.115,1.115,2.67,3.341c-0.444,2.23-2.002,4.622-4.676,7.186c-2.451,2.338-5.041,3.98-7.768,4.928
			c-2.732,0.947-5.32,1.363-7.767,1.252L115.518,164.409z M165.723,176.855c-0.615,1.729-1.589,3.037-2.925,3.924
			c-1.339,0.783-2.646,0.979-3.926,0.588c-1.282-0.389-2.397-1.088-3.341-2.088c-0.949-1.004-1.588-2.176-1.924-3.51
			c-0.332-1.336-0.164-2.508,0.5-3.508c0.558-1.004,1.615-2.425,3.177-4.262c1.559-1.837,3.897-4.593,7.018-8.27
			c0.669,1.562,1.224,3.371,1.669,5.43c0.44,2.064,0.672,4.095,0.672,6.098C166.643,173.264,166.333,175.132,165.723,176.855"/>
	</g>
	<g>
		<defs>
			<rect id="SVGID_83_" x="0.109" y="1.757" width="304.782" height="300.487"/>
		</defs>
		<clipPath id="SVGID_84_">
			<use xlink:href="#SVGID_83_"  overflow="visible"/>
		</clipPath>
		<path clip-path="url(#SVGID_84_)" fill="#575756" d="M299.083,214.462c-0.474-0.954-1.224-1.702-2.235-2.239
			c-1.017-0.535-2.147-0.773-3.402-0.715c-1.254,0.062-2.239,0.626-2.953,1.701c-1.676,2.032-3.227,3.971-4.659,5.82
			c-1.433,1.854-3.463,3.791-6.09,5.82c-2.864,2.149-5.55,3.823-8.058,5.016c0.598-0.719,1.224-1.492,1.881-2.328
			c0.654-0.833,1.279-1.73,1.883-2.688c2.263-3.463,3.996-6.983,5.189-10.565c1.192-3.583,1.853-6.985,1.973-10.208
			c0.119-3.225-0.33-6.09-1.344-8.598c-1.02-2.508-2.601-4.479-4.746-5.91c-2.39-1.551-5.106-2.178-8.151-1.881
			c-3.043,0.301-6.177,1.344-9.399,3.136l3.76-8.599c0.596-1.435,0.449-2.625-0.445-3.582c-0.896-0.955-2.09-1.609-3.585-1.97
			c-1.494-0.356-3.015-0.356-4.566,0c-1.553,0.359-2.565,1.072-3.044,2.149c-0.836,1.91-2.267,5.044-4.299,9.4
			c-2.031,4.362-4.329,9.346-6.895,14.955c-1.5,3.273-3.053,6.666-4.654,10.145c-1.516,1.975-2.859,3.582-4.028,4.81
			c-1.192,1.255-2.81,2.954-4.836,5.106c-1.075,1.072-2.183,1.91-3.313,2.508c-1.133,0.598-2.09,0.925-2.864,0.982
			c-0.778,0.062-1.253-0.18-1.433-0.717c-0.181-0.537,0.088-1.463,0.807-2.773c0.715-1.193,1.761-3.071,3.131-5.645
			c1.371-2.563,2.838-5.309,4.393-8.238c1.547-2.924,3.071-5.787,4.562-8.598c1.494-2.8,2.718-5.16,3.672-7.072
			c0.957-1.67,1.014-2.98,0.18-3.938c-0.836-0.957-1.998-1.524-3.49-1.704c-1.492-0.177-3.045,0.064-4.654,0.719
			c-1.615,0.654-2.779,1.699-3.495,3.133c-1.91,3.703-3.761,7.228-5.55,10.565c-1.555,2.866-3.165,5.796-4.838,8.776
			c-1.672,2.986-3.162,5.313-4.479,6.986c-3.582,4.656-6.955,8.147-10.117,10.477c-3.164,2.326-5.404,2.953-6.718,1.881
			c-0.601-0.477-0.747-1.344-0.446-2.6c0.299-1.252,0.834-2.773,1.61-4.562c0.774-1.793,1.793-3.763,3.045-5.913
			c1.255-2.147,2.537-4.415,3.853-6.806c1.312-2.387,2.803-5.104,4.478-8.148c1.669-3.045,3.161-5.699,4.478-7.969
			c0.834-1.551,0.924-2.895,0.27-4.032c-0.658-1.134-1.702-1.937-3.135-2.415c-1.434-0.477-2.959-0.477-4.565,0
			c-1.612,0.479-2.956,1.553-4.03,3.223c-0.836,1.313-1.82,2.93-2.955,4.838c-1.136,1.91-2.326,3.938-3.582,6.09
			c-1.254,2.146-2.48,4.326-3.672,6.537c-0.817,1.512-1.595,2.887-2.358,4.203c-0.048,0.064-0.104,0.113-0.147,0.183
			c-0.836,1.075-1.853,2.239-3.046,3.494c-1.192,1.252-2.508,2.537-3.94,3.849c-1.432,1.313-2.924,2.569-4.477,3.76
			c-1.554,1.194-3.044,2.213-4.479,3.047c-3.7,2.271-7.045,3.49-10.027,3.67c-2.986,0.182-5.373-0.415-7.165-1.789
			c-1.79-1.37-2.838-3.312-3.131-5.818c-0.302-2.508,0.445-5.373,2.237-8.598c1.431-2.508,2.985-4.835,4.657-6.988
			c1.672-2.146,3.344-4.027,5.016-5.639c1.669-1.613,3.281-2.865,4.833-3.764c1.554-0.893,2.925-1.344,4.122-1.344
			c1.19,0,1.729,0.389,1.609,1.166c-0.121,0.777-0.599,1.733-1.433,2.865c-0.836,1.134-1.853,2.3-3.044,3.49
			c-1.194,1.197-2.213,2.213-3.046,3.049c-0.837,0.715-1.075,1.609-0.712,2.686c0.355,1.075,1.01,2,1.965,2.775
			c0.957,0.777,2.119,1.225,3.492,1.342c1.375,0.124,2.716-0.357,4.031-1.433c1.432-1.19,3.045-2.896,4.836-5.104
			c1.793-2.207,3.164-4.535,4.121-6.982c0.95-2.445,1.277-4.745,0.982-6.897c-0.303-2.147-1.764-3.758-4.391-4.836
			c-2.863-1.071-5.998-1.37-9.399-0.896c-3.401,0.479-6.749,1.675-10.028,3.582c-3.287,1.912-6.447,4.391-9.494,7.436
			c-3.045,3.045-5.703,6.536-7.97,10.477c-1.074,1.912-1.939,4-2.596,6.269c-0.654,2.269-1.076,4.599-1.254,6.985
			c-0.178,2.39,0,4.742,0.538,7.072c0.537,2.331,1.522,4.387,2.954,6.18c1.194,1.555,3.045,2.838,5.554,3.852
			c2.505,1.014,5.373,1.553,8.595,1.609c3.226,0.062,6.654-0.445,10.3-1.521c3.639-1.073,7.192-2.983,10.655-5.731
			c0.737-0.541,1.466-1.112,2.192-1.693c0.037,0.616,0.105,1.216,0.225,1.785c1.016,4.955,4.568,7.434,10.657,7.434
			c2.149,0,4.026-0.18,5.641-0.537c1.61-0.359,3.013-0.834,4.21-1.436c1.189-0.596,2.297-1.223,3.312-1.879
			c1.014-0.655,1.996-1.282,2.957-1.883c0.951,1.434,2.082,2.688,3.398,3.762c1.312,1.074,2.893,1.672,4.746,1.793
			c1.854,0.115,4.029-0.357,6.537-1.436c1.221-0.522,2.541-1.266,3.962-2.211c-0.036,0.078-0.075,0.164-0.112,0.244
			c-2.567,5.489-4.862,10.354-6.896,14.594c-2.025,4.237-3.402,7.193-4.117,8.865c-1.076,2.268-1.164,4.147-0.27,5.643
			c0.896,1.49,2.146,2.507,3.761,3.045c1.61,0.535,3.286,0.535,5.015,0c1.731-0.538,3.02-1.643,3.853-3.314
			c0.241-0.478,0.804-1.697,1.7-3.671c0.895-1.97,1.969-4.389,3.224-7.251c1.253-2.865,2.688-6.122,4.298-9.765
			c1.615-3.644,3.312-7.431,5.105-11.371c1.19,2.271,2.627,3.884,4.301,4.835c1.906,1.314,4.354,1.973,7.341,1.973
			c2.149,0.236,4.654,0.293,7.522,0.178c2.863-0.121,5.851-0.537,8.953-1.254c3.104-0.717,6.181-1.791,9.226-3.225
			s5.817-3.279,8.325-5.552c3.227-3.103,6.027-5.935,8.419-8.507c2.387-2.564,4.12-4.625,5.192-6.18
			C299.382,216.434,299.562,215.421,299.083,214.462 M266.67,219.297c-1.674,2.271-3.402,4.301-5.191,6.09
			c-1.793,1.791-3.557,3.198-5.285,4.209c-1.732,1.018-3.435,1.613-5.104,1.79c-1.672,0.181-3.104-0.147-4.299-0.983
			c-0.957-0.598-1.494-1.58-1.612-2.952c-0.117-1.372,0.03-3.017,0.449-4.927c0.416-1.91,1.163-4,2.236-6.269
			c1.078-2.269,2.39-4.597,3.941-6.985c1.551-2.267,3.284-4.267,5.192-6.002c1.911-1.726,3.733-3.102,5.464-4.117
			c1.73-1.014,3.342-1.64,4.835-1.881c1.492-0.236,2.716-0.057,3.671,0.537c0.834,0.6,1.374,1.609,1.61,3.045
			c0.241,1.436,0.183,3.135-0.175,5.106c-0.359,1.967-1.02,4.118-1.973,6.444C269.473,214.73,268.218,217.033,266.67,219.297"/>
	</g>
	<g>
		<defs>
			<rect id="SVGID_85_" x="0.109" y="1.757" width="304.782" height="300.487"/>
		</defs>
		<clipPath id="SVGID_86_">
			<use xlink:href="#SVGID_85_"  overflow="visible"/>
		</clipPath>
		<path clip-path="url(#SVGID_86_)" fill="#EC671F" d="M250.809,252.342c0,0,25.424,3.732,35.846-4.479
			C297.08,239.654,296.583,281.68,250.809,252.342"/>
	</g>
	<g>
		<defs>
			<rect id="SVGID_87_" x="0.109" y="1.757" width="304.782" height="300.487"/>
		</defs>
		<clipPath id="SVGID_88_">
			<use xlink:href="#SVGID_87_"  overflow="visible"/>
		</clipPath>
		<path clip-path="url(#SVGID_88_)" fill="#EC671F" d="M25.36,145.528c0,0-14.391,4.112-17.091,18.052
			C5.571,177.521-16.359,146.822,25.36,145.528"/>
	</g>
	<g>
		<defs>
			<rect id="SVGID_89_" x="0.109" y="1.757" width="304.782" height="300.487"/>
		</defs>
		<clipPath id="SVGID_90_">
			<use xlink:href="#SVGID_89_"  overflow="visible"/>
		</clipPath>
		<path clip-path="url(#SVGID_90_)" fill="#FFFFFF" d="M81.631,170.863c0,0-1.636,11.188-14.767,17.34
			C49.792,196.652,89.06,215.366,81.631,170.863"/>
	</g>
	<g>
		<defs>
			<rect id="SVGID_91_" x="0.109" y="1.757" width="304.782" height="300.487"/>
		</defs>
		<clipPath id="SVGID_92_">
			<use xlink:href="#SVGID_91_"  overflow="visible"/>
		</clipPath>
		<path clip-path="url(#SVGID_92_)" fill="#FFFFFF" d="M164.814,192.885c0,0-0.586,0.391-1.609,1.073
			c-1.025,0.677-2.432,1.728-4.085,3.008c-1.647,1.292-3.507,2.867-5.378,4.67c-1.867,1.808-3.732,3.853-5.351,6.067
			c-0.821,1.105-1.578,2.249-2.24,3.423c-0.644,1.179-1.277,2.347-1.734,3.543c-0.49,1.183-0.878,2.364-1.166,3.504
			c-0.171,0.563-0.258,1.132-0.364,1.677c-0.125,0.543-0.197,1.075-0.248,1.588c-0.148,1.025-0.15,1.979-0.206,2.826
			c0.018,0.844,0.032,1.588,0.07,2.195c0.131,1.214,0.187,1.924,0.187,1.924s-0.199-0.674-0.509-1.876
			c-0.122-0.606-0.238-1.354-0.374-2.213c-0.064-0.862-0.192-1.849-0.13-2.924c-0.002-1.077,0.121-2.246,0.349-3.464
			c0.217-1.219,0.533-2.5,1.01-3.766c0.441-1.283,1.02-2.56,1.699-3.807c0.682-1.246,1.457-2.461,2.303-3.623
			c1.725-2.301,3.684-4.404,5.703-6.161c2.009-1.766,4.026-3.229,5.823-4.366c1.793-1.148,3.375-1.951,4.476-2.508
			C164.154,193.134,164.814,192.885,164.814,192.885"/>
	</g>
	<g>
		<defs>
			<rect id="SVGID_93_" x="0.109" y="1.757" width="304.782" height="300.487"/>
		</defs>
		<clipPath id="SVGID_94_">
			<use xlink:href="#SVGID_93_"  overflow="visible"/>
		</clipPath>
		<path clip-path="url(#SVGID_94_)" fill="#FFFFFF" d="M197.041,199.395c0,0-0.264,0.537-0.723,1.478
			c-0.471,0.93-1.145,2.259-1.949,3.853c-1.646,3.155-3.837,7.364-6.031,11.572c-1.102,2.096-2.15,4.217-3.115,6.209
			c-0.951,1.995-1.785,3.881-2.396,5.528c-0.601,1.649-1.007,3.063-1.001,4.08c-0.021,0.501,0.061,0.899,0.162,1.151
			c0.119,0.252,0.183,0.385,0.183,0.385s-0.091-0.121-0.265-0.344c-0.151-0.229-0.352-0.636-0.406-1.168
			c-0.096-0.535-0.086-1.19-0.02-1.931c0.059-0.748,0.205-1.571,0.422-2.454c0.848-3.543,2.759-7.977,4.942-12.225
			c2.201-4.248,4.695-8.324,6.699-11.293c0.989-1.494,1.89-2.688,2.495-3.538C196.661,199.857,197.041,199.395,197.041,199.395"/>
	</g>
	<g>
		<defs>
			<rect id="SVGID_95_" x="0.109" y="1.757" width="304.782" height="300.487"/>
		</defs>
		<clipPath id="SVGID_96_">
			<use xlink:href="#SVGID_95_"  overflow="visible"/>
		</clipPath>
		<path clip-path="url(#SVGID_96_)" fill="#FFFFFF" d="M220.787,207.089c0,0-1.008,1.845-2.525,4.611
			c-0.761,1.37-1.646,2.972-2.598,4.688c-0.932,1.715-1.938,3.537-2.854,5.398c-0.949,1.844-1.812,3.727-2.513,5.508
			c-0.69,1.788-1.208,3.514-1.235,4.979c-0.033,0.738,0.108,1.373,0.354,1.893c0.155,0.232,0.276,0.49,0.49,0.639
			c0.182,0.18,0.364,0.336,0.569,0.418c0.381,0.227,0.725,0.321,0.963,0.383c0.236,0.072,0.363,0.109,0.363,0.109
			s-0.132-0.005-0.379-0.018c-0.249-0.016-0.625,0-1.078-0.178c-0.242-0.053-0.477-0.182-0.729-0.354
			c-0.279-0.133-0.48-0.393-0.725-0.658c-0.422-0.562-0.74-1.345-0.793-2.186c-0.195-1.692,0.195-3.598,0.801-5.512
			c0.308-0.957,0.652-1.941,1.076-2.9c0.412-0.967,0.862-1.926,1.332-2.881c1.924-3.786,4.258-7.314,6.146-9.85
			c0.938-1.275,1.796-2.281,2.375-2.998C220.422,207.475,220.787,207.089,220.787,207.089"/>
	</g>
	<g>
		<defs>
			<rect id="SVGID_97_" x="0.109" y="1.757" width="304.782" height="300.487"/>
		</defs>
		<clipPath id="SVGID_98_">
			<use xlink:href="#SVGID_97_"  overflow="visible"/>
		</clipPath>
		<path clip-path="url(#SVGID_98_)" fill="#FFFFFF" d="M248.402,195.383c0,0-0.377,0.991-1.037,2.721
			c-0.693,1.715-1.622,4.193-2.85,7.121c-1.225,2.924-2.607,6.354-4.177,9.994c-1.553,3.646-3.271,7.508-4.978,11.374
			c-1.74,3.854-3.479,7.705-5.16,11.293c-1.664,3.601-3.305,6.916-4.666,9.779c-1.363,2.864-2.596,5.206-3.412,6.868
			c-0.852,1.643-1.334,2.584-1.334,2.584s0.375-0.988,1.038-2.721c0.69-1.715,1.618-4.192,2.846-7.117
			c1.226-2.924,2.604-6.359,4.177-9.995c1.553-3.647,3.271-7.511,4.98-11.374c1.74-3.854,3.479-7.708,5.163-11.296
			c1.666-3.595,3.302-6.911,4.664-9.778c1.364-2.859,2.595-5.205,3.407-6.865C247.918,196.32,248.402,195.383,248.402,195.383"/>
	</g>
	<g>
		<defs>
			<rect id="SVGID_99_" x="0.109" y="1.757" width="304.782" height="300.487"/>
		</defs>
		<clipPath id="SVGID_100_">
			<use xlink:href="#SVGID_99_"  overflow="visible"/>
		</clipPath>
		<path clip-path="url(#SVGID_100_)" fill="#FFFFFF" d="M265.943,192.885c0,0,0.511-0.215,1.47-0.402
			c0.948-0.166,2.356-0.4,4.065-0.143c0.849,0.125,1.779,0.355,2.691,0.816c0.905,0.453,1.805,1.117,2.521,1.98
			c0.735,0.856,1.311,1.891,1.666,2.989c0.396,1.099,0.562,2.249,0.699,3.388c0.069,1.146,0.049,2.283-0.023,3.396
			c-0.1,1.103-0.262,2.18-0.469,3.206c-0.166,1.037-0.473,2.002-0.695,2.929c-0.276,0.915-0.546,1.772-0.818,2.556
			c-0.561,1.562-1.111,2.83-1.509,3.711c-0.397,0.879-0.646,1.373-0.646,1.373s0.108-0.548,0.334-1.479
			c0.259-0.925,0.518-2.274,0.893-3.865c0.163-0.8,0.341-1.665,0.523-2.582c0.138-0.918,0.342-1.881,0.461-2.88
			c0.154-1.001,0.213-2.032,0.308-3.077c0.05-1.046,0.045-2.101-0.031-3.146c-0.108-1.03-0.235-2.071-0.562-3.012
			c-0.298-0.953-0.702-1.846-1.278-2.578c-0.564-0.734-1.234-1.354-1.975-1.812c-0.741-0.451-1.529-0.757-2.286-0.973
			c-1.517-0.416-2.888-0.497-3.837-0.473C266.493,192.814,265.943,192.885,265.943,192.885"/>
	</g>
</g>
</svg>
